{"title":"Maze Runner The Scorch Trials(2015)MPEG-4[DaScubaDude]","uid":13755838,"size":1320421726,"categoryP":"video","categoryS":"movies","magnet":"?xt=urn:btih:9a66d54ab15b5b2354b9195dee92a89a2d7afbc6&amp;dn=Maze+Runner+The+Scorch+Trials%282015%29MPEG-4%5BDaScubaDude%5D&amp;tr=udp%3A%2F%2Ftracker.leechers-paradise.org%3A6969&amp;tr=udp%3A%2F%2Fzer0day.ch%3A1337&amp;tr=udp%3A%2F%2Fopen.demonii.com%3A1337&amp;tr=udp%3A%2F%2Ftracker.coppersurfer.tk%3A6969&amp;tr=udp%3A%2F%2Fexodus.desync.com%3A6969","seeders":0,"leechers":3,"uploader":"dascuba","files":1,"time":1457193353,"description":"Maze Runner: The Scorch Trials (2015)\r\nPG-13 | 2h 12min | Action, Sci-Fi, Thriller | 18 September 2015 (USA)\r\nAfter having escaped the Maze, the Gladers now face a new set of challenges on the open roads of a desolate landscape filled with unimaginable obstacles.\r\nDirector: Wes Ball\r\nWriters: T.S. Nowlin (screenplay), James Dashner (novel)\r\nStars: Dylan O'Brien, Kaya Scodelario, Thomas Brodie-Sangster \r\n\r\nGeneral\r\nComplete name                            : Maze Runner-The Scorch TrialsMAZE_RUNNER_SCORCH_TRIALS_Title2.mp4\r\nFormat                                   : MPEG-4\r\nFormat profile                           : Base Media\r\nCodec ID                                 : isom\r\nFile size                                : 1.23 GiB\r\nDuration                                 : 2h 11mn\r\nOverall bit rate                         : 1 338 Kbps\r\nMovie name                               : MAZE_RUNNER_SCORCH_TRIALS\r\nGenre                                    : Action\r\nWriting application                      : Lavf54.6.100\r\n\r\nVideo\r\nID                                       : 1\r\nFormat                                   : AVC\r\nFormat/Info                              : Advanced Video Codec\r\nFormat profile                           :   \r\nFormat settings, CABAC                   : No\r\nFormat settings, ReFrames                : 6 frames\r\nCodec ID                                 : avc1\r\nCodec ID/Info                            : Advanced Video Coding\r\nDuration                                 : 2h 11mn\r\nBit rate                                 : 1 203 Kbps\r\nWidth                                    : 720 pixels\r\nHeight                                   : 404 pixels\r\nDisplay aspect ratio                     : 16:9\r\nFrame rate mode                          : Constant\r\nFrame rate                               : 29.970 fps\r\nColor space                              : YUV\r\nChroma subsampling                       : 4:2:0\r\nBit depth                                : 8 bits\r\nScan type                                : Progressive\r\nBits/(Pixel*Frame)                       : 0.138\r\nStream size                              : 1.11 GiB (90%)\r\n\r\nAudio\r\nID                                       : 2\r\nFormat                                   : AAC\r\nFormat/Info                              : Advanced Audio Codec\r\nFormat profile                           : LC\r\nCodec ID                                 : 40\r\nDuration                                 : 2h 11mn\r\nBit rate mode                            : Constant\r\nBit rate                                 : 128 Kbps\r\nChannel(s)                               : 2 channels\r\nChannel positions                        : Front: L R\r\nSampling rate                            : 44.1 KHz\r\nCompression mode                         : Lossy\r\nStream size                              : 120 MiB (10%)","torrent":{"xt":"urn:btih:9a66d54ab15b5b2354b9195dee92a89a2d7afbc6","amp;dn":"Maze+Runner+The+Scorch+Trials%282015%29MPEG-4%5BDaScubaDude%5D","amp;tr":["udp%3A%2F%2Ftracker.leechers-paradise.org%3A6969","udp%3A%2F%2Fzer0day.ch%3A1337","udp%3A%2F%2Fopen.demonii.com%3A1337","udp%3A%2F%2Ftracker.coppersurfer.tk%3A6969","udp%3A%2F%2Fexodus.desync.com%3A6969"],"infoHash":"9a66d54ab15b5b2354b9195dee92a89a2d7afbc6","infoHashBuffer":{"type":"Buffer","data":[154,102,213,74,177,91,91,35,84,185,25,93,238,146,168,154,45,122,251,198]},"announce":[],"urlList":[]}}